<?xml version="1.0" standalone="no"?>
<!DOCTYPE svg PUBLIC "-//W3C//DTD SVG 20010904//EN"
 "http://www.w3.org/TR/2001/REC-SVG-20010904/DTD/svg10.dtd">
<svg version="1.0" xmlns="http://www.w3.org/2000/svg"
 width="1000.000000pt" height="1000.000000pt" viewBox="0 0 1000.000000 1000.000000"
 preserveAspectRatio="xMidYMid meet">
<metadata>
Created by potrace 1.11, written by Peter Selinger 2001-2013
</metadata>
<g transform="translate(0.000000,1000.000000) scale(0.100000,-0.100000)"
fill="#000000" stroke="none">
<path d="M0 5000 l0 -5000 5000 0 5000 0 0 5000 0 5000 -5000 0 -5000 0 0
-5000z m4499 4933 c-5 -32 1 -33 234 -35 l232 -3 -229 -2 c-186 -3 -233 -6
-246 -18 -9 -8 -20 -12 -25 -8 -4 5 -5 0 -2 -10 4 -10 3 -16 -3 -12 -5 3 -14
-5 -21 -17 -12 -22 -11 -22 6 -8 17 14 17 14 5 -7 -8 -12 -17 -20 -21 -17 -5
2 -13 -6 -20 -18 -12 -22 -11 -22 6 -8 17 14 17 14 5 -7 -8 -12 -18 -19 -22
-17 -4 3 -8 3 -8 0 0 -2 -3 -13 -6 -23 -5 -15 -4 -15 5 -3 7 9 11 10 11 3 0
-6 -4 -15 -10 -18 -5 -3 -17 -21 -26 -40 -9 -19 -20 -33 -24 -30 -4 3 -7 -3
-6 -13 0 -9 -5 -16 -12 -14 -8 1 -11 -2 -7 -8 8 -13 -35 -91 -46 -84 -5 3 -6
-3 -2 -12 4 -11 2 -15 -4 -11 -6 4 -10 -1 -9 -11 0 -9 -4 -16 -11 -15 -8 2
-10 -4 -6 -14 5 -12 3 -14 -7 -8 -8 5 -11 4 -7 -2 6 -10 -35 -87 -210 -393
l-60 -105 -532 -1 c-292 -1 -539 -5 -548 -8 -9 -4 -20 -1 -25 6 -6 9 -7 5 -3
-10 4 -15 -4 -39 -28 -80 -32 -53 -119 -204 -356 -617 -50 -88 -97 -171 -105
-185 -8 -14 -25 -30 -38 -35 -15 -7 -143 -9 -373 -5 -284 4 -322 6 -200 10
141 6 136 6 -90 8 -132 2 -273 5 -312 8 -80 7 -128 -3 -83 -16 l25 -8 -27 -1
c-16 -1 -28 4 -28 9 0 21 -18 9 -30 -19 -6 -16 -20 -38 -31 -50 -11 -12 -17
-21 -14 -21 5 0 -23 -49 -35 -60 -6 -6 -24 -38 -53 -93 -11 -23 -24 -44 -28
-47 -3 -3 -21 -34 -39 -70 -18 -36 -43 -78 -55 -95 -12 -16 -34 -52 -48 -80
-14 -27 -26 -44 -27 -36 0 17 58 123 74 133 6 4 7 8 3 8 -9 0 40 87 60 108 7
7 13 20 13 27 0 7 6 20 13 27 7 7 24 36 39 63 15 28 39 72 54 100 14 27 36 61
47 77 11 15 21 38 22 50 l2 23 539 3 c532 3 539 4 554 24 15 21 48 77 295 503
157 271 197 339 205 345 4 3 11 19 17 35 l10 30 538 3 c323 1 543 6 550 12 6
5 56 86 110 179 54 94 103 167 108 164 6 -3 7 -1 4 4 -8 13 110 219 123 216 5
-2 6 5 3 14 -4 10 -2 14 4 10 6 -4 10 1 9 11 0 9 4 16 11 15 8 -2 10 4 6 14
-5 12 -3 14 7 8 8 -5 11 -3 8 6 -3 8 1 27 9 43 12 23 17 26 25 15 6 -10 7 -7
3 10 -5 17 -4 22 5 16 9 -5 11 -4 6 3 -11 18 4 37 16 21 7 -10 8 -8 5 8 -3 13
0 26 5 30 7 4 8 1 4 -8 -4 -8 0 -5 9 6 33 40 57 97 46 108 -17 17 -13 37 6 30
12 -5 15 -2 10 10 -8 22 25 27 41 5 7 -9 12 -21 11 -25z m-3251 14 c2 -10 -3
-26 -11 -35 -8 -9 -24 -33 -35 -52 -10 -19 -45 -80 -77 -135 -32 -55 -66 -113
-75 -130 -10 -16 -40 -68 -67 -115 -28 -47 -92 -157 -143 -245 -51 -88 -98
-167 -105 -175 -6 -8 -18 -30 -25 -48 l-12 -32 -102 6 c-122 8 -141 16 -31 14
44 -1 87 -1 97 -1 15 1 41 36 79 106 20 39 54 98 119 210 29 50 64 110 78 135
36 64 100 176 137 240 18 30 55 95 84 144 29 49 49 96 46 103 -3 8 -2 19 1 24
9 16 38 6 42 -14z m1082 11 c0 -27 -45 -59 -52 -38 -2 5 -148 10 -340 11 -192
0 -338 5 -338 10 0 5 146 9 340 9 220 0 340 4 340 10 0 6 11 10 25 10 14 0 25
-6 25 -12z m3230 0 c0 6 8 12 18 12 13 0 17 -8 17 -37 0 -38 70 -164 429 -773
l92 -155 539 -3 c524 -2 565 -5 565 -33 0 -11 498 -871 513 -885 15 -15 286
-24 727 -25 179 0 335 -3 347 -6 15 -3 35 -28 59 -72 21 -36 57 -99 82 -139
24 -41 42 -75 40 -77 -2 -3 -35 48 -73 113 -37 64 -77 125 -87 134 -22 19 -77
29 -128 24 -19 -2 -174 -5 -345 -6 -257 -3 -304 -5 -275 -15 34 -12 -18 -15
-354 -18 -24 -1 -43 5 -48 14 -10 16 -79 136 -296 514 -85 149 -174 302 -197
340 l-43 70 -537 1 c-295 1 -538 4 -540 6 -2 2 -55 93 -118 203 -63 110 -168
295 -234 410 -66 116 -125 221 -132 235 -11 24 -11 24 3 6 9 -11 16 -24 16
-29 0 -4 4 -5 10 -2 6 3 7 -1 4 -9 -6 -16 7 -22 19 -10 5 5 -44 114 -61 134
-2 3 -10 -3 -17 -13 -13 -18 -14 -18 -24 1 -10 20 -21 21 -243 22 -128 0 -234
3 -237 5 -2 3 95 5 217 5 171 0 222 3 222 13 0 8 3 7 10 -3 7 -12 10 -11 16 5
5 12 3 20 -5 23 -8 3 -4 9 11 16 16 9 25 9 30 2 5 -7 8 -7 8 2z m2230 -33 c0
-2 -8 -4 -17 -4 -10 1 -27 -2 -38 -6 -17 -5 -20 -1 -21 23 l-1 29 39 -19 c21
-10 38 -20 38 -23z m1044 21 c-3 -7 4 -28 15 -47 11 -18 18 -36 15 -41 -3 -4
-1 -8 5 -8 5 0 16 -12 24 -27 7 -16 40 -73 72 -128 32 -55 69 -120 83 -145 13
-25 28 -49 32 -55 30 -43 69 -124 57 -119 -14 5 -34 39 -35 58 0 5 -4 12 -9
15 -11 8 -41 54 -70 107 -12 22 -66 116 -121 207 -55 92 -96 170 -91 173 5 3
7 10 4 15 -4 5 1 9 9 9 9 0 13 -6 10 -14z m-4304 0 c0 -3 -4 -8 -10 -11 -5 -3
-10 -1 -10 4 0 6 5 11 10 11 6 0 10 -2 10 -4z m928 -21 c-3 -3 -9 2 -12 12 -6
14 -5 15 5 6 7 -7 10 -15 7 -18z m2525 8 c-35 -2 -91 -2 -125 0 -35 2 -7 3 62
3 69 0 97 -1 63 -3z m-288 -23 c3 -5 2 -10 -4 -10 -5 0 -13 5 -16 10 -3 6 -2
10 4 10 5 0 13 -4 16 -10z m-5402 -17 c-7 -2 -19 -2 -25 0 -7 3 -2 5 12 5 14
0 19 -2 13 -5z m5447 -3 c0 -5 -5 -10 -11 -10 -5 0 -7 5 -4 10 3 6 8 10 11 10
2 0 4 -4 4 -10z m-3320 -9 c0 -5 -9 -19 -20 -32 l-20 -24 17 32 c19 34 23 39
23 24z m4749 -540 c14 -25 1 -35 -15 -13 -16 20 -17 32 -4 32 5 0 14 -8 19
-19z m50 -89 c17 -29 27 -51 22 -48 -9 6 -61 94 -61 104 0 9 6 0 39 -56z m51
-82 c0 -5 -2 -10 -4 -10 -3 0 -8 5 -11 10 -3 6 -1 10 4 10 6 0 11 -4 11 -10z
m34 -66 c9 -24 2 -26 -12 -4 -7 11 -8 20 -3 20 5 0 12 -7 15 -16z m-8827 -110
c-3 -3 -12 -4 -19 -1 -8 3 -5 6 6 6 11 1 17 -2 13 -5z m4149 -651 c-3 -10 -2
-24 3 -31 5 -9 -1 -31 -17 -60 -14 -26 -31 -60 -39 -77 -35 -73 -41 -80 -77
-83 -36 -3 -45 5 -27 24 6 5 33 47 61 94 58 95 93 150 98 150 2 0 1 -8 -2 -17z
m815 -71 c12 -5 12 -22 0 -22 -10 0 -61 75 -61 91 0 7 12 -6 26 -27 15 -21 30
-40 35 -42z m63 -98 c26 -41 44 -80 41 -85 -4 -5 -1 -9 6 -9 6 0 18 -8 25 -17
7 -10 14 -13 14 -8 0 6 90 9 255 7 213 -3 255 -1 255 11 0 7 7 14 15 14 18 0
18 -2 3 -26 -9 -15 -7 -26 12 -57 13 -22 26 -41 29 -44 7 -6 30 -46 49 -85 8
-16 29 -50 47 -75 17 -25 35 -52 38 -60 13 -29 31 -54 98 -137 7 -9 50 -13
153 -13 169 0 298 -9 290 -21 -3 -5 -49 -9 -102 -10 -98 -1 -295 -14 -256 -17
21 -2 64 -44 64 -62 0 -6 5 -10 10 -10 6 0 10 -8 10 -18 0 -13 12 -22 40 -31
22 -6 40 -18 40 -26 0 -7 9 -16 20 -20 11 -3 19 -12 17 -18 -1 -7 6 -11 16
-10 22 1 57 -30 57 -52 0 -8 7 -15 15 -15 8 0 15 -4 15 -10 0 -5 -4 -10 -10
-10 -17 0 -11 -20 8 -27 9 -4 28 -17 42 -30 14 -13 29 -23 35 -24 5 -1 -1 -5
-15 -9 l-25 -8 28 -2 c41 -4 45 -4 53 -12 4 -5 -40 -9 -97 -10 -57 -1 8 -5
146 -8 l250 -5 98 -170 c55 -93 172 -296 260 -450 88 -154 171 -297 184 -317
l23 -38 -66 -112 c-107 -183 -385 -665 -444 -770 l-55 -98 -220 -1 c-121 -1
-210 -4 -198 -6 29 -6 39 -33 12 -33 -11 0 -18 -4 -15 -9 7 -11 -30 -36 -67
-45 -15 -3 -25 -11 -22 -16 3 -5 -7 -16 -22 -25 -15 -9 -20 -14 -10 -11 11 3
15 2 12 -4 -3 -6 -14 -10 -24 -10 -22 0 -93 -29 -73 -30 20 0 3 -20 -17 -20
-12 0 -18 -7 -17 -17 1 -13 -7 -18 -29 -19 -42 -1 -85 -21 -85 -39 0 -10 -14
-17 -40 -21 -45 -7 -48 -16 -20 -62 18 -30 19 -33 3 -52 -9 -10 -20 -17 -25
-14 -5 3 -3 12 3 20 10 13 6 21 -27 49 -36 32 -87 45 -77 20 2 -7 -14 -17 -37
-24 -22 -6 -40 -16 -40 -20 0 -10 -58 -22 -117 -24 -24 -1 -43 -4 -43 -7 0
-15 -76 -5 -88 12 -13 18 -38 15 -27 -3 4 -5 1 -9 -5 -9 -6 0 -8 -11 -5 -27 4
-22 3 -24 -3 -8 -8 18 -12 15 -33 -24 -13 -24 -28 -51 -34 -60 -5 -9 -30 -50
-54 -91 -24 -41 -54 -91 -66 -110 -67 -107 -85 -138 -94 -162 -8 -20 -15 -26
-28 -22 -16 5 -16 4 -2 -8 18 -14 28 -42 34 -89 4 -27 0 -24 -35 30 l-40 61
-525 0 c-395 0 -524 3 -519 12 4 7 3 8 -4 4 -6 -4 -9 -13 -6 -20 3 -8 1 -17
-5 -21 -7 -4 -11 6 -11 27 -1 30 -2 31 -14 16 -17 -23 -30 -23 -18 -2 6 12 3
26 -10 48 -11 17 -50 82 -86 143 -37 62 -93 155 -124 207 -32 52 -58 99 -58
104 0 5 -6 14 -12 20 -10 8 -14 3 -15 -20 -2 -23 1 -29 13 -24 8 3 12 2 9 -4
-11 -17 -25 -11 -35 15 -9 22 -20 30 -42 26 -5 0 -8 5 -8 13 0 19 -18 24 -59
18 -29 -4 -33 -3 -28 11 5 14 0 17 -26 17 -51 1 -151 28 -163 45 -6 8 -15 15
-19 15 -5 0 -6 -3 -2 -6 6 -7 -64 -84 -76 -84 -13 0 -7 29 7 37 18 11 28 76 9
69 -7 -3 -13 -1 -13 5 0 6 -4 7 -10 4 -5 -3 -12 5 -16 19 -6 27 -34 44 -34 22
0 -8 6 -17 13 -19 6 -3 3 -6 -9 -6 -24 -1 -57 25 -67 53 -6 15 -10 16 -22 6
-8 -7 -15 -8 -15 -2 0 5 -15 13 -32 17 -45 11 -51 13 -66 14 -7 0 -10 6 -7 11
3 6 1 10 -5 10 -6 0 -9 4 -5 9 3 5 -4 12 -15 16 -11 3 -23 17 -26 31 -4 14
-13 24 -24 24 -10 0 -26 8 -36 18 -17 16 -11 17 117 22 119 5 105 6 -126 10
-143 3 -298 6 -345 6 -47 1 -95 2 -107 3 -23 1 -12 -17 -248 391 -78 135 -165
285 -193 334 -29 49 -52 91 -52 93 0 2 -23 40 -51 83 l-50 79 27 43 c15 24 42
68 59 98 94 163 275 476 363 628 56 95 104 182 107 193 6 18 19 19 288 21 155
1 255 3 222 5 -33 2 -69 8 -80 13 -11 5 -29 11 -40 13 -11 3 -5 5 15 6 26 1
31 4 20 11 -8 5 -12 10 -10 12 26 16 52 28 64 28 20 0 31 21 16 30 -15 9 -4
30 16 30 8 0 14 4 14 8 0 5 16 17 35 28 19 10 37 26 40 35 12 37 71 88 120
103 28 8 41 15 30 16 -19 1 -18 2 3 12 13 7 21 17 18 25 -3 7 -1 13 5 13 6 0
7 5 3 11 -4 8 0 9 15 4 11 -3 21 -2 21 3 0 12 -122 22 -309 23 -86 1 -145 4
-131 7 23 4 24 5 5 13 -12 4 34 8 111 8 72 1 179 4 237 8 l107 6 47 81 c26 45
71 118 100 163 29 46 53 87 53 93 0 5 3 10 8 10 4 0 18 20 32 45 14 25 32 45
40 45 9 0 20 4 25 9 13 13 485 19 485 7 0 -6 5 -5 12 2 9 9 146 12 553 13 327
0 531 4 518 9 -12 5 -25 22 -29 37 -4 15 -13 35 -20 43 -22 26 -34 68 -21 74
7 2 13 5 14 5 1 1 22 -33 47 -75z m-314 -64 c60 -4 -37 -7 -260 -6 -293 0
-320 1 -155 6 297 8 312 8 415 0z m2988 -97 c-10 -2 -26 -2 -35 0 -10 3 -2 5
17 5 19 0 27 -2 18 -5z m858 -324 c19 -30 34 -57 34 -61 0 -17 -10 -7 -25 25
-8 17 -25 48 -37 67 -33 54 -11 28 28 -31z m-2077 -211 c22 -35 45 -68 51 -75
5 -7 10 -16 10 -22 0 -5 4 -11 8 -13 5 -1 32 -48 61 -103 29 -55 57 -103 64
-107 6 -4 8 -10 4 -14 -8 -8 -47 24 -47 38 0 5 -5 14 -10 21 -26 31 -59 88
-70 123 -7 21 -22 47 -33 58 -10 12 -26 37 -34 56 -9 19 -24 47 -34 62 -11 14
-19 29 -19 32 0 15 13 1 49 -56z m-3972 -146 c-9 -10 -17 -26 -17 -35 0 -8 -6
-22 -13 -29 -6 -7 -23 -35 -37 -62 -18 -36 -31 -50 -47 -51 -13 -1 -23 3 -23
9 0 11 27 55 40 66 3 3 11 17 17 32 9 20 17 26 29 21 13 -5 15 -2 9 18 -5 18
-4 21 4 9 9 -12 11 -11 11 8 0 12 5 22 10 22 6 0 10 8 10 17 0 13 3 14 12 5 9
-9 8 -16 -5 -30z m-2304 -227 c-3 -9 -8 -14 -10 -11 -3 3 -2 9 2 15 9 16 15
13 8 -4z m6595 1 c54 -7 52 -18 -2 -14 -28 2 -51 8 -54 16 -2 7 2 10 10 7 7
-2 28 -6 46 -9z m-6342 -438 c10 -24 24 -49 31 -56 7 -7 13 -19 13 -27 0 -7 7
-15 15 -19 8 -3 15 -12 15 -19 0 -8 9 -26 21 -41 11 -14 18 -26 14 -26 -6 0
31 -58 45 -70 10 -9 89 -150 95 -170 4 -11 13 -20 21 -20 8 0 12 5 9 10 -3 6
-4 10 -1 10 3 0 15 -18 26 -40 16 -31 18 -45 10 -60 -12 -23 -25 -27 -17 -6 4
9 1 13 -6 10 -7 -2 -23 -27 -36 -54 -14 -28 -29 -50 -33 -50 -4 0 -8 -5 -8
-10 0 -6 -13 -29 -30 -52 -16 -22 -30 -46 -30 -51 0 -13 -51 -80 -56 -74 -3 2
11 31 30 63 19 32 46 84 61 114 14 30 32 61 40 70 27 30 35 66 19 86 -9 11
-12 13 -8 5 5 -9 3 -12 -5 -7 -6 4 -9 16 -6 26 4 12 -7 39 -30 75 -19 31 -32
61 -29 67 4 7 2 8 -4 4 -7 -4 -12 -3 -12 3 0 6 -14 33 -30 62 -17 28 -32 56
-33 63 -1 6 -4 13 -7 16 -18 18 -80 123 -86 144 -3 14 -11 26 -17 26 -6 0 -8
3 -4 6 3 4 0 13 -8 21 -8 8 -15 19 -15 25 0 20 27 -11 46 -54z m8071 -200 c-3
-8 -6 -5 -6 6 -1 11 2 17 5 13 3 -3 4 -12 1 -19z m-64 -118 c-25 -44 -46 -80
-48 -80 -1 0 0 11 3 25 2 14 7 25 11 25 4 0 18 19 31 43 23 43 40 67 45 67 2
0 -17 -36 -42 -80z m-85 -150 l-23 -40 27 -50 c16 -28 23 -50 18 -50 -6 0 -10
6 -10 13 0 6 -14 27 -31 45 l-31 33 18 34 c10 19 22 31 28 28 5 -4 7 1 3 10
-4 11 -1 17 9 17 12 0 10 -8 -8 -40z m52 -171 c0 -6 -4 -7 -10 -4 -5 3 -10 11
-10 16 0 6 5 7 10 4 6 -3 10 -11 10 -16z m-4990 -1219 c0 -5 -2 -10 -4 -10 -3
0 -8 5 -11 10 -3 6 -1 10 4 10 6 0 11 -4 11 -10z m1994 -80 c3 -14 3 -19 0
-12 -3 6 -9 10 -13 8 -4 -3 -7 6 -7 20 0 28 11 20 20 -16z m-294 -522 c13 -28
15 -36 5 -23 -9 11 -19 19 -23 17 -8 -4 -21 30 -15 41 8 13 12 8 33 -35z
m-1190 16 c0 -8 -19 -13 -24 -6 -3 5 1 9 9 9 8 0 15 -2 15 -3z"/>
<path d="M5635 9730 c-3 -5 -2 -10 3 -10 5 0 13 -10 17 -22 5 -13 11 -32 15
-43 8 -20 8 -20 9 1 1 19 -25 84 -34 84 -2 0 -7 -4 -10 -10z"/>
<path d="M5700 9602 c0 -5 7 -17 16 -28 15 -18 15 -18 5 2 -6 12 -7 24 -4 28
3 3 1 6 -5 6 -7 0 -12 -4 -12 -8z"/>
<path d="M5800 9444 c0 -8 5 -12 10 -9 6 4 8 11 5 16 -9 14 -15 11 -15 -7z"/>
<path d="M4597 8285 c-9 -19 -15 -35 -12 -35 7 0 37 61 33 66 -3 2 -12 -12
-21 -31z"/>
<path d="M3932 8016 c-16 -23 -29 -33 -39 -29 -13 5 -15 0 -9 -30 4 -24 3 -37
-4 -37 -5 0 -10 -5 -10 -10 0 -6 -11 -28 -24 -49 -14 -21 -23 -41 -20 -44 3
-2 -6 -22 -21 -42 -14 -21 -25 -44 -25 -51 0 -8 -4 -14 -10 -14 -8 0 -30 -61
-30 -85 0 -5 12 5 26 23 14 17 32 32 40 32 8 0 13 9 11 23 -1 13 3 21 11 20 6
-2 12 1 12 6 0 12 57 34 69 26 6 -3 11 0 11 8 0 10 7 13 19 10 11 -3 28 5 44
21 14 14 33 26 42 26 8 0 15 5 15 10 0 6 9 10 20 10 11 0 20 4 20 8 0 10 94
55 115 55 10 0 13 6 9 19 -4 15 0 18 33 18 52 0 82 19 33 21 -34 1 -34 1 9 10
32 6 49 5 59 -4 13 -10 14 -9 2 13 l-13 25 22 -19 c16 -15 18 -22 10 -33 -7
-7 -9 -16 -6 -19 7 -8 67 86 67 106 0 12 -2 13 -9 1 -7 -11 -46 -13 -217 -8
-115 3 -216 8 -224 11 -10 4 -23 -6 -38 -28z m451 -33 c-3 -7 -6 -13 -8 -13
-2 0 -5 6 -8 13 -3 8 1 14 8 14 7 0 11 -6 8 -14z"/>
<path d="M5600 8018 c0 -5 23 -8 51 -8 43 0 54 -4 71 -25 11 -14 24 -23 29
-20 5 4 9 2 9 -3 0 -6 9 -8 20 -5 11 3 20 0 20 -6 0 -6 7 -11 15 -11 7 0 18
-6 22 -13 4 -7 35 -20 68 -27 49 -12 55 -15 35 -21 -22 -5 -21 -7 15 -14 43
-8 80 -24 57 -25 -27 0 0 -19 37 -25 22 -4 42 -13 45 -21 3 -8 19 -14 36 -14
19 0 30 -5 30 -14 0 -8 11 -17 25 -20 14 -4 25 -11 25 -16 0 -6 6 -10 14 -10
8 0 17 -6 20 -12 3 -7 4 1 0 17 -3 17 -9 31 -14 33 -5 2 -14 20 -21 40 -6 20
-15 39 -18 42 -12 10 -51 89 -51 104 0 9 -4 16 -10 16 -5 0 -12 11 -16 25 -3
14 -15 30 -26 36 -23 12 -488 9 -488 -3z m590 -248 c0 -5 -5 -10 -11 -10 -5 0
-7 5 -4 10 3 6 8 10 11 10 2 0 4 -4 4 -10z"/>
<path d="M5623 7975 c9 -16 22 -39 31 -50 13 -17 15 -17 16 -4 0 9 -7 22 -15
29 -17 14 -21 35 -5 25 6 -3 10 -1 10 5 0 7 -6 10 -14 7 -7 -3 -19 0 -26 6 -7
7 -6 0 3 -18z"/>
<path d="M4326 7927 c5 -21 -2 -41 -30 -88 -20 -33 -31 -57 -26 -54 5 3 25 33
45 66 33 57 34 62 20 82 -16 22 -16 22 -9 -6z"/>
<path d="M5706 7907 c3 -10 9 -15 12 -12 3 3 0 11 -7 18 -10 9 -11 8 -5 -6z"/>
<path d="M4266 7894 c-4 -9 -4 -19 -1 -22 3 -3 5 1 5 9 0 12 2 12 10 -1 5 -8
11 -12 14 -10 2 3 -1 13 -9 23 -12 16 -13 16 -19 1z"/>
<path d="M5706 7837 c3 -10 9 -15 12 -12 3 3 0 11 -7 18 -10 9 -11 8 -5 -6z"/>
<path d="M4245 7749 c-4 -6 -5 -12 -2 -15 2 -3 7 2 10 11 7 17 1 20 -8 4z"/>
<path d="M5796 7677 c3 -10 9 -15 12 -12 3 3 0 11 -7 18 -10 9 -11 8 -5 -6z"/>
<path d="M6376 7533 c-6 -14 -5 -15 5 -6 7 7 10 15 7 18 -3 3 -9 -2 -12 -12z"/>
<path d="M4090 4820 c6 -11 13 -20 16 -20 2 0 0 9 -6 20 -6 11 -13 20 -16 20
-2 0 0 -9 6 -20z"/>
<path d="M5564 4416 c-4 -17 -11 -23 -22 -19 -9 4 -13 2 -9 -4 22 -35 -36 -59
-67 -27 -9 8 -16 12 -16 7 0 -5 -176 -10 -391 -12 -306 -2 -393 0 -406 10 -18
16 -46 21 -37 8 3 -5 10 -7 15 -4 5 4 9 1 9 -4 0 -7 -26 -11 -64 -11 -36 0
-68 -4 -71 -10 -7 -12 1014 -14 1030 -2 16 11 55 92 45 92 -5 0 -12 -11 -16
-24z"/>
<path d="M4430 4419 c0 -13 32 -69 40 -69 14 0 21 33 10 44 -8 8 -9 5 -5 -9 5
-15 0 -12 -19 10 -14 17 -26 27 -26 24z"/>
<path d="M5560 4207 c0 -7 7 -22 15 -33 13 -17 14 -16 4 14 -11 33 -19 41 -19
19z"/>
<path d="M2916 7245 c-3 -8 -1 -15 4 -15 6 0 10 7 10 15 0 8 -2 15 -4 15 -2 0
-6 -7 -10 -15z"/>
<path d="M2890 7210 c0 -5 5 -10 11 -10 5 0 7 5 4 10 -3 6 -8 10 -11 10 -2 0
-4 -4 -4 -10z"/>
<path d="M2871 7184 c0 -11 3 -14 6 -6 3 7 2 16 -1 19 -3 4 -6 -2 -5 -13z"/>
</g>
</svg>
